<svg width="54" height="21" viewBox="0 0 54 21" fill="none" xmlns="http://www.w3.org/2000/svg">
<path d="M19.0802 11.8369C18.5242 12.4248 17.8748 12.7188 17.1319 12.7188C16.2569 12.7188 15.5596 12.4134 15.0401 11.8027C14.5206 11.1875 14.2608 10.3809 14.2608 9.38281C14.2608 8.72656 14.393 8.13184 14.6573 7.59863C14.9216 7.06543 15.2976 6.65072 15.7852 6.35449C16.2729 6.05827 16.838 5.91016 17.4805 5.91016C18.4832 5.91016 19.2784 6.28385 19.8663 7.03125C20.4542 7.77865 20.7481 8.77897 20.7481 10.0322V10.4971C20.7481 12.2926 20.3425 13.6621 19.5313 14.6055C18.7201 15.5488 17.5102 16.0273 15.9014 16.041H15.7032V14.667H15.9425C16.9223 14.6533 17.6742 14.4186 18.1983 13.9629C18.7224 13.5026 19.0164 12.7939 19.0802 11.8369ZM17.4805 11.4199C17.8132 11.4199 18.1254 11.3242 18.4171 11.1328C18.7087 10.9414 18.9343 10.6771 19.0938 10.3398V9.69043C19.0938 8.95671 18.9434 8.36654 18.6427 7.91992C18.3419 7.47331 17.9522 7.25 17.4737 7.25C16.9952 7.25 16.6124 7.44824 16.3253 7.84473C16.0427 8.23665 15.9014 8.7334 15.9014 9.33496C15.9014 9.95931 16.045 10.4629 16.3321 10.8457C16.6192 11.2285 17.002 11.4199 17.4805 11.4199ZM23.1546 14.25C23.4645 14.25 23.7038 14.3389 23.8724 14.5166C24.041 14.6898 24.1254 14.9085 24.1254 15.1729C24.1254 15.4326 24.041 15.6491 23.8724 15.8223C23.7038 15.9909 23.4645 16.0752 23.1546 16.0752C22.8584 16.0752 22.6237 15.9909 22.4505 15.8223C22.2774 15.6536 22.1908 15.4372 22.1908 15.1729C22.1908 14.9085 22.2751 14.6898 22.4437 14.5166C22.6123 14.3389 22.8493 14.25 23.1546 14.25ZM23.1546 8.44629C23.4645 8.44629 23.7038 8.53516 23.8724 8.71289C24.041 8.88607 24.1254 9.10482 24.1254 9.36914C24.1254 9.62891 24.041 9.84538 23.8724 10.0186C23.7038 10.1872 23.4645 10.2715 23.1546 10.2715C22.8584 10.2715 22.6237 10.1872 22.4505 10.0186C22.2774 9.84993 22.1908 9.63346 22.1908 9.36914C22.1908 9.10482 22.2751 8.88607 22.4437 8.71289C22.6123 8.53516 22.8493 8.44629 23.1546 8.44629ZM31.1051 12.4521H32.3424V13.7852H31.1051V16H29.444V13.7852H25.1442L25.0963 12.7734L29.3893 6.04688H31.1051V12.4521ZM26.8395 12.4521H29.444V8.2959L29.3209 8.51465L26.8395 12.4521ZM37.6611 16H36.0068V8.00879L33.5663 8.84277V7.44141L37.4491 6.0127H37.6611V16Z" fill="white"/>
</svg>
